# xmcd
#
# Track frame offsets:
#	150
#	33766
#	56172
#	74926
#	94297
#	120278
#	136720
#	156701
#	181705
#	212988
#	238518
#	256765
#	267853
#	283212
#
# Disc length: 4099 seconds
#
# Revision: 3
# Processed by: cddbd v1.5.1PL0 Copyright (c) Steve Scherf et al.
# Submitted via: audiograbber 1.83.01
#
DISCID=d110010e
DTITLE=Various Artist - Later Mag - Serve Chilled 2
DYEAR=2000
DGENRE=
TTITLE0=Rockers HIFI - Sunshine of your Love (Bigga Batucada Mix) 
TTITLE1=Royksopp - Fusions Alright 
TTITLE2=Feature Cast - Recipe for the Perfect Afro
TTITLE3=Dr Rubber Funk - Harry The Guitar
TTITLE4=Swawn Lee - Happiness (Ashley Beedle Mix) 
TTITLE5=The Bees - Sky Holds the Sun
TTITLE6=Hefner - Dive into You
TTITLE7=Pepe Deluxe - Woman in Blue
TTITLE8=Tim Love Lee - One Night Samba 
TTITLE9=Bent - No more Tears 
TTITLE10=Midfield General - Druck Country
TTITLE11=Rob - Amours 
TTITLE12=Mr Scruff - Get a Move On
TTITLE13=Lazyboy - Mothing to be Afraid of  
EXTD=
EXTT0=
EXTT1=
EXTT2=
EXTT3=
EXTT4=
EXTT5=
EXTT6=
EXTT7=
EXTT8=
EXTT9=
EXTT10=
EXTT11=
EXTT12=
EXTT13=
PLAYORDER=
